<svg width="365" height="312" viewBox="0 0 365 312" fill="none" xmlns="http://www.w3.org/2000/svg">
<rect width="365" height="312" fill="white"/>
<path d="M114.912 142.016V142.976C113.888 143.008 113.12 143.136 112.608 143.36C112.096 143.552 111.744 143.936 111.552 144.512C111.392 145.056 111.312 145.92 111.312 147.104V170.912C111.312 172.064 111.392 172.928 111.552 173.504C111.744 174.08 112.096 174.464 112.608 174.656C113.12 174.848 113.888 174.976 114.912 175.04V176C114.016 175.936 112.88 175.904 111.504 175.904C110.16 175.872 108.784 175.856 107.376 175.856C105.84 175.856 104.4 175.872 103.056 175.904C101.712 175.904 100.624 175.936 99.792 176V175.04C100.88 174.976 101.696 174.848 102.24 174.656C102.816 174.464 103.2 174.08 103.392 173.504C103.584 172.928 103.68 172.064 103.68 170.912V144.944H104.016L92.112 176.048H91.344L78.384 145.136V168.128C78.384 169.888 78.48 171.248 78.672 172.208C78.864 173.136 79.28 173.808 79.92 174.224C80.592 174.608 81.632 174.88 83.04 175.04V176C82.432 175.936 81.632 175.904 80.64 175.904C79.648 175.872 78.72 175.856 77.856 175.856C77.12 175.856 76.368 175.872 75.6 175.904C74.832 175.904 74.192 175.936 73.68 176V175.04C74.704 174.88 75.472 174.608 75.984 174.224C76.496 173.84 76.832 173.216 76.992 172.352C77.184 171.456 77.28 170.24 77.28 168.704V147.104C77.28 145.92 77.184 145.056 76.992 144.512C76.832 143.936 76.48 143.552 75.936 143.36C75.424 143.136 74.672 143.008 73.68 142.976V142.016C74.192 142.048 74.832 142.08 75.6 142.112C76.368 142.144 77.12 142.16 77.856 142.16C79.232 142.16 80.576 142.144 81.888 142.112C83.232 142.08 84.416 142.048 85.44 142.016L95.52 166.352L94.32 167.456L103.968 142.16C104.512 142.16 105.072 142.16 105.648 142.16C106.224 142.16 106.8 142.16 107.376 142.16C108.784 142.16 110.16 142.144 111.504 142.112C112.88 142.08 114.016 142.048 114.912 142.016ZM143.796 142.016C143.668 143.424 143.572 144.784 143.508 146.096C143.476 147.408 143.46 148.416 143.46 149.12C143.46 149.76 143.476 150.368 143.508 150.944C143.54 151.52 143.572 152 143.604 152.384H142.5C142.18 150.048 141.684 148.208 141.012 146.864C140.34 145.488 139.46 144.528 138.372 143.984C137.316 143.408 136.068 143.12 134.628 143.12H132.66C131.732 143.12 131.028 143.2 130.548 143.36C130.068 143.52 129.748 143.84 129.588 144.32C129.428 144.8 129.348 145.536 129.348 146.528V171.488C129.348 172.48 129.428 173.216 129.588 173.696C129.748 174.176 130.068 174.496 130.548 174.656C131.028 174.816 131.732 174.896 132.66 174.896H135.012C136.452 174.896 137.716 174.592 138.804 173.984C139.924 173.344 140.868 172.272 141.636 170.768C142.436 169.264 143.044 167.232 143.46 164.672H144.564C144.468 165.696 144.42 167.04 144.42 168.704C144.42 169.44 144.436 170.48 144.468 171.824C144.5 173.168 144.596 174.56 144.756 176C143.124 175.936 141.284 175.904 139.236 175.904C137.188 175.872 135.364 175.856 133.764 175.856C132.964 175.856 131.94 175.856 130.692 175.856C129.444 175.856 128.1 175.872 126.66 175.904C125.22 175.904 123.764 175.92 122.292 175.952C120.82 175.952 119.428 175.968 118.116 176V175.04C119.14 174.976 119.908 174.848 120.42 174.656C120.932 174.464 121.268 174.08 121.428 173.504C121.62 172.928 121.716 172.064 121.716 170.912V147.104C121.716 145.92 121.62 145.056 121.428 144.512C121.268 143.936 120.916 143.552 120.372 143.36C119.86 143.136 119.108 143.008 118.116 142.976V142.016C119.428 142.048 120.82 142.08 122.292 142.112C123.764 142.112 125.22 142.128 126.66 142.16C128.1 142.16 129.444 142.16 130.692 142.16C131.94 142.16 132.964 142.16 133.764 142.16C135.236 142.16 136.9 142.16 138.756 142.16C140.644 142.128 142.324 142.08 143.796 142.016ZM136.308 158.432C136.308 158.432 136.308 158.592 136.308 158.912C136.308 159.232 136.308 159.392 136.308 159.392H127.908C127.908 159.392 127.908 159.232 127.908 158.912C127.908 158.592 127.908 158.432 127.908 158.432H136.308ZM137.7 152.096C137.572 153.92 137.508 155.312 137.508 156.272C137.54 157.232 137.556 158.112 137.556 158.912C137.556 159.712 137.572 160.592 137.604 161.552C137.636 162.512 137.716 163.904 137.844 165.728H136.74C136.58 164.608 136.276 163.568 135.828 162.608C135.412 161.648 134.804 160.88 134.004 160.304C133.204 159.696 132.164 159.392 130.884 159.392V158.432C131.844 158.432 132.66 158.24 133.332 157.856C134.004 157.44 134.548 156.912 134.964 156.272C135.412 155.6 135.764 154.896 136.02 154.16C136.276 153.424 136.468 152.736 136.596 152.096H137.7ZM189.818 142.016V142.976C188.794 143.008 188.026 143.136 187.514 143.36C187.002 143.552 186.65 143.936 186.458 144.512C186.298 145.056 186.218 145.92 186.218 147.104V170.912C186.218 172.064 186.298 172.928 186.458 173.504C186.65 174.08 187.002 174.464 187.514 174.656C188.026 174.848 188.794 174.976 189.818 175.04V176C188.922 175.936 187.786 175.904 186.41 175.904C185.066 175.872 183.69 175.856 182.282 175.856C180.746 175.856 179.306 175.872 177.962 175.904C176.618 175.904 175.53 175.936 174.698 176V175.04C175.786 174.976 176.602 174.848 177.146 174.656C177.722 174.464 178.106 174.08 178.298 173.504C178.49 172.928 178.586 172.064 178.586 170.912V144.944H178.922L167.018 176.048H166.25L153.29 145.136V168.128C153.29 169.888 153.386 171.248 153.578 172.208C153.77 173.136 154.186 173.808 154.826 174.224C155.498 174.608 156.538 174.88 157.946 175.04V176C157.338 175.936 156.538 175.904 155.546 175.904C154.554 175.872 153.626 175.856 152.762 175.856C152.026 175.856 151.274 175.872 150.506 175.904C149.738 175.904 149.098 175.936 148.586 176V175.04C149.61 174.88 150.378 174.608 150.89 174.224C151.402 173.84 151.738 173.216 151.898 172.352C152.09 171.456 152.186 170.24 152.186 168.704V147.104C152.186 145.92 152.09 145.056 151.898 144.512C151.738 143.936 151.386 143.552 150.842 143.36C150.33 143.136 149.578 143.008 148.586 142.976V142.016C149.098 142.048 149.738 142.08 150.506 142.112C151.274 142.144 152.026 142.16 152.762 142.16C154.138 142.16 155.482 142.144 156.794 142.112C158.138 142.08 159.322 142.048 160.346 142.016L170.426 166.352L169.226 167.456L178.874 142.16C179.418 142.16 179.978 142.16 180.554 142.16C181.13 142.16 181.706 142.16 182.282 142.16C183.69 142.16 185.066 142.144 186.41 142.112C187.786 142.08 188.922 142.048 189.818 142.016ZM210.072 141.344C213.464 141.344 216.424 142.032 218.952 143.408C221.512 144.784 223.496 146.768 224.904 149.36C226.312 151.92 227.016 155.04 227.016 158.72C227.016 162.304 226.296 165.44 224.856 168.128C223.416 170.816 221.4 172.912 218.808 174.416C216.248 175.92 213.32 176.672 210.024 176.672C206.632 176.672 203.656 175.984 201.096 174.608C198.568 173.232 196.6 171.248 195.192 168.656C193.784 166.064 193.08 162.944 193.08 159.296C193.08 155.712 193.8 152.576 195.24 149.888C196.712 147.2 198.712 145.104 201.24 143.6C203.8 142.096 206.744 141.344 210.072 141.344ZM209.88 142.208C208.088 142.208 206.52 142.928 205.176 144.368C203.864 145.808 202.84 147.792 202.104 150.32C201.4 152.848 201.048 155.776 201.048 159.104C201.048 162.496 201.448 165.456 202.248 167.984C203.08 170.48 204.184 172.416 205.56 173.792C206.968 175.136 208.52 175.808 210.216 175.808C212.008 175.808 213.56 175.088 214.872 173.648C216.216 172.208 217.24 170.224 217.944 167.696C218.68 165.136 219.048 162.208 219.048 158.912C219.048 155.488 218.632 152.528 217.8 150.032C217 147.536 215.896 145.616 214.488 144.272C213.112 142.896 211.576 142.208 209.88 142.208ZM245.167 142.016V142.976C244.143 143.008 243.359 143.136 242.815 143.36C242.303 143.552 241.967 143.936 241.807 144.512C241.647 145.056 241.567 145.92 241.567 147.104V170.912C241.567 172.064 241.647 172.928 241.807 173.504C241.999 174.08 242.351 174.464 242.863 174.656C243.375 174.848 244.143 174.976 245.167 175.04V176C244.303 175.936 243.215 175.904 241.903 175.904C240.591 175.872 239.263 175.856 237.919 175.856C236.351 175.856 234.895 175.872 233.551 175.904C232.239 175.904 231.167 175.936 230.335 176V175.04C231.359 174.976 232.127 174.848 232.639 174.656C233.151 174.464 233.487 174.08 233.647 173.504C233.839 172.928 233.935 172.064 233.935 170.912V147.104C233.935 145.92 233.839 145.056 233.647 144.512C233.487 143.936 233.135 143.552 232.591 143.36C232.079 143.136 231.327 143.008 230.335 142.976V142.016C231.167 142.048 232.239 142.08 233.551 142.112C234.895 142.144 236.351 142.16 237.919 142.16C239.263 142.16 240.591 142.144 241.903 142.112C243.215 142.08 244.303 142.048 245.167 142.016ZM248.382 142.016C249.182 142.048 250.254 142.08 251.598 142.112C252.974 142.144 254.334 142.16 255.678 142.16C257.214 142.16 258.702 142.144 260.142 142.112C261.582 142.08 262.606 142.064 263.214 142.064C266.19 142.064 268.654 142.4 270.606 143.072C272.59 143.712 274.062 144.656 275.022 145.904C276.014 147.152 276.51 148.656 276.51 150.416C276.51 151.504 276.286 152.608 275.838 153.728C275.39 154.816 274.622 155.84 273.534 156.8C272.478 157.728 271.022 158.48 269.166 159.056C267.31 159.6 264.974 159.872 262.158 159.872H257.55V158.912H261.678C263.566 158.912 264.99 158.56 265.95 157.856C266.942 157.12 267.614 156.16 267.966 154.976C268.35 153.76 268.542 152.416 268.542 150.944C268.542 148.416 268.094 146.464 267.198 145.088C266.302 143.68 264.766 142.976 262.59 142.976C261.342 142.976 260.526 143.248 260.142 143.792C259.79 144.336 259.614 145.44 259.614 147.104V170.912C259.614 172.064 259.694 172.928 259.854 173.504C260.046 174.08 260.398 174.464 260.91 174.656C261.422 174.848 262.19 174.976 263.214 175.04V176C262.35 175.936 261.262 175.904 259.95 175.904C258.638 175.872 257.31 175.856 255.966 175.856C254.43 175.856 252.974 175.872 251.598 175.904C250.254 175.904 249.182 175.936 248.382 176V175.04C249.406 174.976 250.174 174.848 250.686 174.656C251.198 174.464 251.534 174.08 251.694 173.504C251.886 172.928 251.982 172.064 251.982 170.912V147.104C251.982 145.92 251.886 145.056 251.694 144.512C251.534 143.936 251.182 143.552 250.638 143.36C250.126 143.136 249.374 143.008 248.382 142.976V142.016ZM257.454 159.056C258.83 159.088 260.014 159.152 261.006 159.248C262.03 159.344 262.926 159.44 263.694 159.536C264.462 159.6 265.15 159.648 265.758 159.68C268.67 159.936 270.814 160.56 272.19 161.552C273.598 162.544 274.51 164.032 274.926 166.016L276.03 170.96C276.318 172.24 276.622 173.136 276.942 173.648C277.262 174.16 277.726 174.416 278.334 174.416C278.75 174.384 279.086 174.288 279.342 174.128C279.63 173.936 279.934 173.664 280.254 173.312L280.926 173.888C280.062 174.88 279.134 175.584 278.142 176C277.15 176.448 275.95 176.672 274.542 176.672C272.814 176.672 271.39 176.304 270.27 175.568C269.15 174.832 268.414 173.472 268.062 171.488L267.198 166.688C266.974 165.344 266.702 164.176 266.382 163.184C266.062 162.16 265.614 161.36 265.038 160.784C264.494 160.176 263.726 159.872 262.734 159.872H257.55L257.454 159.056ZM286.464 169.28C287.712 169.28 288.704 169.616 289.44 170.288C290.176 170.928 290.544 171.824 290.544 172.976C290.544 174.128 290.176 175.04 289.44 175.712C288.704 176.352 287.712 176.672 286.464 176.672C285.216 176.672 284.224 176.352 283.488 175.712C282.752 175.04 282.384 174.128 282.384 172.976C282.384 171.824 282.752 170.928 283.488 170.288C284.224 169.616 285.216 169.28 286.464 169.28Z" fill="black"/>
</svg>
